<svg id="Layer_1" xmlns="http://www.w3.org/2000/svg" viewBox="199.1 198.4 1070 400.1"><style>.st0{fill:#5B3D23;} .st1{fill:#00A0FF;} .st2{fill:#FFFFFF;} .st3{fill:#0099FF;} .st4{fill:#808385;} .st5{font-family:&apos;BanglaSangamMN&apos;;} .st6{font-size:50.0914px;} .st7{letter-spacing:5;}</style><title>Slice 1</title><path class="st0" d="M286 280c0 22-11.7 33-35 33H199.1V201.8H248.5c22.2 0 33.3 8.8 33.3 26.5 0 11.7-4.5 19.7-13.4 24.2 11.8 5.6 17.6 14.8 17.6 27.5zM409.7 256.3c0 17.2-5.6 31.1-16.7 41.8-11.2 10.6-25.3 16-42.4 16-17.1 0-31.2-5.3-42.2-16-11-10.6-16.6-24.6-16.6-41.8 0-17.2 5.5-31.1 16.5-41.8 11-10.7 25.2-16 42.5-16s31.5 5.3 42.5 16c10.9 10.6 16.4 24.6 16.4 41.8zm-39.1-20.7c-4.9-5.4-11.5-8.2-19.8-8.2-8.2 0-14.9 2.7-19.9 8.2-5 5.5-7.5 12.4-7.5 20.7 0 8.3 2.5 15.2 7.5 20.6 5 5.4 11.6 8.1 19.8 8.1 8.2 0 14.8-2.7 19.8-8.2 5-5.4 7.5-12.3 7.5-20.6s-2.5-15.2-7.4-20.6zM533.3 256.3c0 17.2-5.6 31.1-16.7 41.8-11.2 10.6-25.3 16-42.4 16-17.1 0-31.2-5.3-42.2-16-11-10.6-16.6-24.6-16.6-41.8 0-17.2 5.5-31.1 16.5-41.8 11-10.7 25.2-16 42.5-16s31.5 5.3 42.5 16c10.9 10.6 16.4 24.6 16.4 41.8zm-39.1-20.7c-4.9-5.4-11.5-8.2-19.8-8.2s-14.9 2.7-19.9 8.2c-5 5.5-7.5 12.4-7.5 20.7 0 8.3 2.5 15.2 7.5 20.6 5 5.4 11.6 8.1 19.8 8.1 8.2 0 14.8-2.7 19.8-8.2 5-5.4 7.5-12.3 7.5-20.6s-2.4-15.2-7.4-20.6zM594.7 236l22.9-27.5c3.7-4.5 8.8-6.8 15.2-6.8h16.3v96.9c0 9.6-5.4 14.3-16.3 14.3s-16.3-4.8-16.3-14.3v-45.5l-21.8 25.6-21.7-25.4v45.3c0 9.6-5.4 14.3-16.3 14.3h-16.3V201.7h16.3c6.3.1 11.3 2.3 15 6.8l23 27.5z"/><path class="st1" d="M718.4 227.9v70.9c0 9.6-5.4 14.3-16.3 14.3h-16.3v-85.2h-16.5c-8.8 0-13.2-4.4-13.2-13.1v-13.1h79c8.8 0 13.2 4.4 13.2 13.1s-4.4 13.1-13.2 13.1h-16.7zM871.9 256.3c0 17.2-5.6 31.1-16.7 41.8-11.2 10.6-25.3 16-42.4 16-17.1 0-31.2-5.3-42.2-16S754 273.5 754 256.3c0-17.2 5.5-31.1 16.5-41.8 11-10.7 25.2-16 42.5-16s31.5 5.3 42.5 16c11 10.6 16.4 24.6 16.4 41.8zm-39-20.7c-4.9-5.4-11.5-8.2-19.8-8.2s-14.9 2.7-19.9 8.2c-5 5.5-7.5 12.4-7.5 20.7 0 8.3 2.5 15.2 7.5 20.6 5 5.4 11.6 8.1 19.8 8.1 8.2 0 14.8-2.7 19.8-8.2 5-5.4 7.5-12.3 7.5-20.6s-2.5-15.2-7.4-20.6zM960.1 313.3l-5.4-11.7-9.9-21.6-9.9 21.6c-3.6 7.8-8.7 11.7-15.4 11.7h-11.8l-28-86.1c-1.3-3.9-1.9-7.6-1.9-11 0-3.4 1.3-6.8 3.9-10.1 2.6-3.3 7.3-5 13.9-4.9 6.7.1 11.3 3.9 13.7 11.5l12.4 38.2 7.7-16.8c3.6-7.7 8.7-11.5 15.5-11.5s11.9 3.8 15.3 11.5l7.6 16.8 12.5-38.2c2.5-7.6 7-11.4 13.6-11.5 6.6-.1 11.3 1.6 13.9 4.9 2.7 3.4 4 6.7 4 10.1 0 3.4-.6 7-1.9 10.9l-24.2 74.4c-3.8 7.8-9.2 11.7-15.9 11.7.1.1-9.7.1-9.7.1zM1086.2 251.3V216c0-9.6 5.4-14.3 16.3-14.3h16.3v96.9c0 9.6-5.4 14.3-16.3 14.3-6 0-10.8-2.1-14.3-6.3l-36.6-43.5v35.4c0 9.6-5.4 14.3-16.3 14.3H1019v-111l16.3-.1c7-.1 12 2.2 15 6.8l35.9 42.8z"/><g><path class="st2" d="M286 421c0 22-11.7 33-35 33H199.1V342.8H248.5c22.2 0 33.3 8.8 33.3 26.5 0 11.7-4.5 19.7-13.4 24.2 11.8 5.6 17.6 14.8 17.6 27.5zM409.7 397.3c0 17.2-5.6 31.1-16.7 41.8-11.2 10.6-25.3 16-42.4 16-17.1 0-31.2-5.3-42.2-15.9-11-10.6-16.6-24.6-16.6-41.8 0-17.2 5.5-31.1 16.5-41.8 11-10.7 25.2-16 42.5-16s31.5 5.3 42.5 16c10.9 10.5 16.4 24.5 16.4 41.7zm-39.1-20.7c-4.9-5.4-11.5-8.2-19.8-8.2-8.2 0-14.9 2.7-19.9 8.2-5 5.5-7.5 12.4-7.5 20.7s2.5 15.2 7.5 20.6c5 5.4 11.6 8.1 19.8 8.1 8.2 0 14.8-2.7 19.8-8.2 5-5.4 7.5-12.3 7.5-20.6s-2.5-15.2-7.4-20.6zM533.3 397.3c0 17.2-5.6 31.1-16.7 41.8-11.2 10.6-25.3 16-42.4 16-17.1 0-31.2-5.3-42.2-15.9-11-10.6-16.6-24.6-16.6-41.8 0-17.2 5.5-31.1 16.5-41.8 11-10.7 25.2-16 42.5-16s31.5 5.3 42.5 16c10.9 10.5 16.4 24.5 16.4 41.7zm-39.1-20.7c-4.9-5.4-11.5-8.2-19.8-8.2s-14.9 2.7-19.9 8.2c-5 5.5-7.5 12.4-7.5 20.7s2.5 15.2 7.5 20.6c5 5.4 11.6 8.1 19.8 8.1 8.2 0 14.8-2.7 19.8-8.2 5-5.4 7.5-12.3 7.5-20.6s-2.4-15.2-7.4-20.6zM594.7 377l22.9-27.5c3.7-4.5 8.8-6.8 15.2-6.8h16.3v96.9c0 9.6-5.4 14.3-16.3 14.3s-16.3-4.8-16.3-14.3v-45.5l-21.8 25.6-21.7-25.4v45.3c0 9.6-5.4 14.3-16.3 14.3h-16.3V342.7h16.3c6.3.1 11.3 2.3 15 6.8l23 27.5z"/><path class="st3" d="M718.4 368.9v70.9c0 9.6-5.4 14.3-16.3 14.3h-16.3v-85.2h-16.5c-8.8 0-13.2-4.4-13.2-13.1v-13.1h79c8.8 0 13.2 4.4 13.2 13.1s-4.4 13.1-13.2 13.1h-16.7zM871.9 397.3c0 17.2-5.6 31.1-16.7 41.8-11.2 10.6-25.3 16-42.4 16-17.1 0-31.2-5.3-42.2-15.9S754 414.6 754 397.4c0-17.2 5.5-31.1 16.5-41.8 11-10.7 25.2-16 42.5-16s31.5 5.3 42.5 16c11 10.5 16.4 24.5 16.4 41.7zm-39-20.7c-4.9-5.4-11.5-8.2-19.8-8.2s-14.9 2.7-19.9 8.2c-5 5.5-7.5 12.4-7.5 20.7s2.5 15.2 7.5 20.6c5 5.4 11.6 8.1 19.8 8.1 8.2 0 14.8-2.7 19.8-8.2 5-5.4 7.5-12.3 7.5-20.6s-2.5-15.2-7.4-20.6zM960.1 454.3l-5.4-11.7-9.9-21.6-9.9 21.6c-3.6 7.8-8.7 11.7-15.4 11.7h-11.8l-28-86.1c-1.3-3.9-1.9-7.6-1.9-11 0-3.4 1.3-6.8 3.9-10.1 2.6-3.3 7.3-5 13.9-4.9 6.7.1 11.3 3.9 13.7 11.5l12.4 38.2 7.7-16.8c3.6-7.7 8.7-11.5 15.5-11.5s11.9 3.8 15.3 11.5l7.6 16.8 12.5-38.2c2.5-7.6 7-11.4 13.6-11.5 6.6-.1 11.3 1.6 13.9 4.9 2.7 3.4 4 6.7 4 10.1 0 3.4-.6 7-1.9 10.9l-24.2 74.4c-3.8 7.8-9.2 11.7-15.9 11.7l-9.7.1zM1086.2 392.3V357c0-9.6 5.4-14.3 16.3-14.3h16.3v96.9c0 9.6-5.4 14.3-16.3 14.3-6 0-10.8-2.1-14.3-6.3l-36.6-43.5v35.4c0 9.6-5.4 14.3-16.3 14.3H1019v-111l16.3-.1c7-.1 12 2.2 15 6.8l35.9 42.8z"/></g><g><path class="st4" d="M286 564.5c0 22-11.7 33-35 33H199.1V486.3H248.5c22.2 0 33.3 8.8 33.3 26.5 0 11.6-4.5 19.7-13.4 24.2 11.8 5.6 17.6 14.8 17.6 27.5zM409.7 540.8c0 17.2-5.6 31.1-16.7 41.8-11.2 10.6-25.3 16-42.4 16-17.1 0-31.2-5.3-42.2-16-11-10.6-16.6-24.6-16.6-41.8 0-17.2 5.5-31.1 16.5-41.8 11-10.7 25.2-16 42.5-16s31.5 5.3 42.5 16c10.9 10.6 16.4 24.6 16.4 41.8zm-39.1-20.7c-4.9-5.4-11.5-8.2-19.8-8.2-8.2 0-14.9 2.7-19.9 8.2-5 5.5-7.5 12.4-7.5 20.7 0 8.3 2.5 15.2 7.5 20.6 5 5.4 11.6 8.1 19.8 8.1 8.2 0 14.8-2.7 19.8-8.2 5-5.4 7.5-12.3 7.5-20.6s-2.5-15.2-7.4-20.6zM533.3 540.8c0 17.2-5.6 31.1-16.7 41.8-11.2 10.6-25.3 16-42.4 16-17.1 0-31.2-5.3-42.2-16-11-10.6-16.6-24.6-16.6-41.8 0-17.2 5.5-31.1 16.5-41.8 11-10.7 25.2-16 42.5-16s31.5 5.3 42.5 16c10.9 10.6 16.4 24.6 16.4 41.8zm-39.1-20.7c-4.9-5.4-11.5-8.2-19.8-8.2s-14.9 2.7-19.9 8.2c-5 5.5-7.5 12.4-7.5 20.7 0 8.3 2.5 15.2 7.5 20.6 5 5.4 11.6 8.1 19.8 8.1 8.2 0 14.8-2.7 19.8-8.2 5-5.4 7.5-12.3 7.5-20.6s-2.4-15.2-7.4-20.6zM594.7 520.5l22.9-27.5c3.7-4.5 8.8-6.8 15.2-6.8h16.3v96.9c0 9.6-5.4 14.3-16.3 14.3s-16.3-4.8-16.3-14.3v-45.5l-21.8 25.6-21.7-25.4v45.3c0 9.6-5.4 14.3-16.3 14.3h-16.3V486.2h16.3c6.3.1 11.3 2.3 15 6.8l23 27.5zM718.4 512.4v70.9c0 9.6-5.4 14.3-16.3 14.3h-16.3v-85.2h-16.5c-8.8 0-13.2-4.4-13.2-13.1v-13.1h79c8.8 0 13.2 4.4 13.2 13.1s-4.4 13.1-13.2 13.1h-16.7zM871.9 540.8c0 17.2-5.6 31.1-16.7 41.8-11.2 10.6-25.3 16-42.4 16-17.1 0-31.2-5.3-42.2-16-11-10.6-16.6-24.6-16.6-41.8 0-17.2 5.5-31.1 16.5-41.8 11-10.7 25.2-16 42.5-16s31.5 5.3 42.5 16c11 10.6 16.4 24.6 16.4 41.8zm-39-20.7c-4.9-5.4-11.5-8.2-19.8-8.2s-14.9 2.7-19.9 8.2c-5 5.5-7.5 12.4-7.5 20.7 0 8.3 2.5 15.2 7.5 20.6 5 5.4 11.6 8.1 19.8 8.1 8.2 0 14.8-2.7 19.8-8.2 5-5.4 7.5-12.3 7.5-20.6s-2.5-15.2-7.4-20.6zM960.1 597.8l-5.4-11.7-9.9-21.6-9.9 21.6c-3.6 7.8-8.7 11.7-15.4 11.7h-11.8l-28-86.1c-1.3-3.9-1.9-7.6-1.9-11 0-3.4 1.3-6.8 3.9-10.1 2.6-3.3 7.3-5 13.9-4.9 6.7.1 11.3 3.9 13.7 11.5l12.4 38.2 7.7-16.8c3.6-7.7 8.7-11.5 15.5-11.5s11.9 3.8 15.3 11.5l7.6 16.8 12.5-38.2c2.5-7.6 7-11.4 13.6-11.5 6.6-.1 11.3 1.6 13.9 4.9 2.7 3.4 4 6.7 4 10.1 0 3.4-.6 7-1.9 10.9L985.7 586c-3.8 7.8-9.2 11.7-15.9 11.7l-9.7.1zM1086.2 535.8v-35.3c0-9.6 5.4-14.3 16.3-14.3h16.3v96.9c0 9.6-5.4 14.3-16.3 14.3-6 0-10.8-2.1-14.3-6.3l-36.6-43.5V583c0 9.6-5.4 14.3-16.3 14.3H1019v-111l16.3-.1c7-.1 12 2.2 15 6.8l35.9 42.8z"/></g><text transform="translate(1151 449.787)"><tspan x="0" y="0" class="st2 st5 st6 st7">P</tspan><tspan x="38.1" y="0" class="st2 st5 st6 st7">BC</tspan></text></svg>